<svg id="Layer_1" data-name="Layer 1" xmlns="http://www.w3.org/2000/svg" viewBox="0 0 1000 1000"><defs><style>.cls-1{fill:#ec3132;}.cls-2{fill:#9a2a29;}.cls-3{fill:#010101;}</style></defs><title>The editorial board</title><path class="cls-1" d="M574.07,294.07l209.34,138a289.69,289.69,0,0,0-36.12-86.24c-51.48-82.39-143-137.19-247.29-137.19-160.93,0-291.38,130.45-291.38,291.38,0,141.52,100.88,259.47,234.66,285.86A293.17,293.17,0,0,0,595.4,775.39L500,705.93Z"/><path class="cls-2" d="M574.07,294.07,500,705.93l95.39,69.46c114.07-39.51,196-147.88,196-275.39a292,292,0,0,0-8-67.95Z"/><path class="cls-3" d="M510.43,675.32c16.21-54.87,36.67-162.38,105.15-233.11,0,0-41.51-81.39-41.51-148.14H500v.21H425.93c0,66.74-41.51,148.13-41.51,148.13,68.42,70.66,88.87,178,105.1,232.94A17.08,17.08,0,0,0,500,705.93h0c-2.45,0-3.25-114-4.88-158.72-.7-19.19-4.67-45.83-5-62.9a43.87,43.87,0,0,0,19.7,0c-.29,17.07-4.27,43.71-5,62.9C503.27,592,502.45,705.9,500,705.93a17.08,17.08,0,0,0,10.42-30.61Zm-9.71-267a54.18,54.18,0,0,0-1.86,8,50.06,50.06,0,0,1-2.07-9.66C500.16,403.05,502.9,401.3,500.72,408.35Zm-15.36,37.93c-1.74-7.83,1-20.28,2.44-26.86.74-3.31,5.7-25.23,7.33-11.4s6.59,20.25,13.84,26.05c8.14,6.51,5.69,24.42-9,24.42C492.69,458.49,487,453.61,485.36,446.28ZM500,482a48.34,48.34,0,0,1-9.88-1.19c0-2.24,0-4.27.12-6.05.81-16.28,5.85-12.21,9.76-12.21s9-4.07,9.77,12.21c.09,1.78.12,3.81.11,6.05A48.25,48.25,0,0,1,500,482Z"/></svg>